Coordinates
version=1
nRows=14
nColumns=40
inDegrees=yes

Units are S.I. units (second, meters, Newtons, ...)
If the header above contains a line with 'inDegrees', this indicates whether rotational values are in degrees (yes) or radians (no).

endheader
time	pelvis_tilt	pelvis_list	pelvis_rotation	pelvis_tx	pelvis_ty	pelvis_tz	hip_flexion_r	hip_adduction_r	hip_rotation_r	knee_angle_r	knee_angle_r_beta	ankle_angle_r	subtalar_angle_r	mtp_angle_r	hip_flexion_l	hip_adduction_l	hip_rotation_l	knee_angle_l	knee_angle_l_beta	ankle_angle_l	subtalar_angle_l	mtp_angle_l	lumbar_extension	lumbar_bending	lumbar_rotation	arm_flex_r	arm_add_r	arm_rot_r	elbow_flex_r	pro_sup_r	wrist_flex_r	wrist_dev_r	arm_flex_l	arm_add_l	arm_rot_l	elbow_flex_l	pro_sup_l	wrist_flex_l	wrist_dev_l
     12.06700000	      6.06801479	     10.65695095	      9.34805956	      0.04851574	      1.32188649	     -0.00459940	     20.57432737	    -12.50729459	      1.35809289	     38.34477287	      0.66924254	    -30.60349381	    -18.57474582	      0.00000000	     63.92753513	     14.09505590	      1.49402574	     97.35052890	      1.69908726	     -9.90535504	    -20.37551095	      0.00000000	    -63.85475687	     -2.31921343	    -10.64946710	     48.78416851	     11.55605829	    -64.17571113	     48.35161156	     79.95551119	      0.00000000	      0.00000000	     62.02145606	     20.75884663	    -61.98759669	     47.50718837	     66.61388483	      0.00000000	      0.00000000
     12.08300000	      6.13354092	     10.45150230	      9.09169352	      0.04862708	      1.32208501	     -0.00441822	     21.34151557	    -11.98955688	      2.29388033	     41.54085885	      0.72502476	    -30.88208783	    -19.40475225	      0.00000000	     63.98726761	     13.83231874	      1.02300220	     95.19128276	      1.66140130	     -9.21432323	    -20.49744183	      0.00000000	    -63.89519119	     -2.31206709	    -10.38072668	     48.95291942	     11.58735845	    -64.19534026	     48.43183185	     79.97218290	      0.00000000	      0.00000000	     62.06212795	     20.77224591	    -62.08697916	     47.56774720	     66.83608101	      0.00000000	      0.00000000
     12.10000000	      6.57662295	      9.92345126	      9.04754195	      0.04877641	      1.32292450	     -0.00473540	     21.69769911	    -11.35607429	      2.50554275	     44.61962974	      0.77875945	    -31.30901778	    -19.43614574	      0.00000000	     63.29130327	     13.65944929	      1.13688609	     92.81652176	      1.61995390	     -8.77749827	    -20.62020158	      0.00000000	    -64.24320532	     -1.80732947	     -9.91988050	     49.16177153	     11.57660949	    -64.10490578	     48.47620885	     79.98064763	      0.00000000	      0.00000000	     62.06414420	     20.73488581	    -62.08112944	     47.65903247	     66.87619812	      0.00000000	      0.00000000
     12.11700000	      6.50923639	      9.56106380	      8.40100023	      0.04884515	      1.32269594	     -0.00418695	     23.06274380	    -10.63130168	      3.38782746	     48.36376171	      0.84410688	    -30.72676176	    -20.60535028	      0.00000000	     62.86383305	     12.89304025	      0.72200556	     90.22738333	      1.57476491	     -8.07395448	    -20.46270761	      0.00000000	    -64.07023339	     -2.04936647	     -9.33802175	     49.29728100	     11.70905722	    -64.21658800	     48.69930551	     80.04581057	      0.00000000	      0.00000000	     62.07917278	     20.70583227	    -62.24505636	     47.70561157	     67.13508819	      0.00000000	      0.00000000
     12.13300000	      6.91418563	      8.92154421	      8.14751450	      0.04896591	      1.32333688	     -0.00434111	     23.79343582	     -9.92701032	      3.36196283	     51.93434011	      0.90642523	    -30.11218254	    -21.18029419	      0.00000000	     61.55214411	     12.42893330	      0.94164423	     87.34901592	      1.52452793	     -7.64749809	    -20.44521870	      0.00000000	    -64.31311047	     -1.65338613	     -8.69591536	     49.49189248	     11.83998906	    -64.21391007	     48.87008780	     80.07235999	      0.00000000	      0.00000000	     62.02238654	     20.62558999	    -62.27718978	     47.79023175	     67.18387605	      0.00000000	      0.00000000
     12.15000000	      7.23116403	      8.27815925	      7.76233528	      0.04906434	      1.32382414	     -0.00449570	     24.81567485	     -9.17212540	      3.51774910	     55.60924116	      0.97056435	    -29.57543018	    -21.76695916	      0.00000000	     60.04832399	     11.80211173	      1.12639849	     84.29026090	      1.47114258	     -7.29178610	    -20.25208813	      0.00000000	    -64.47476045	     -1.33466140	     -7.97375960	     49.67623458	     11.96062756	    -64.23790873	     49.10801837	     80.11765979	      0.00000000	      0.00000000	     61.96611140	     20.52242253	    -62.36747863	     47.87453315	     67.20966505	      0.00000000	      0.00000000
     12.16700000	      7.59385337	      7.40311322	      7.50388481	      0.04909300	      1.32462172	     -0.00483528	     25.87004988	     -8.36520618	      3.29576455	     59.06575442	      1.03089189	    -29.72482990	    -21.73292494	      0.00000000	     58.15046302	     11.20270181	      1.73283114	     80.93816852	      1.41263753	     -7.10949352	    -20.29740654	      0.00000000	    -64.68466285	     -0.74156396	     -7.16844452	     49.92030464	     12.08448841	    -64.07977550	     49.18690555	     80.13856434	      0.00000000	      0.00000000	     61.83697767	     20.37122363	    -62.43288616	     48.00924008	     67.19641976	      0.00000000	      0.00000000
     12.18300000	      7.92411263	      6.76023621	      6.78995449	      0.04936843	      1.32483612	     -0.00451460	     27.27472732	     -7.44876354	      3.65521235	     63.11494203	      1.10156355	    -28.71599194	    -22.67764291	      0.00000000	     56.04874184	     10.26131486	      1.94843300	     77.48728680	      1.35240828	     -6.78340203	    -19.75682366	      0.00000000	    -64.85294405	     -0.69067873	     -6.31172372	     50.05396749	     12.31991248	    -64.07385222	     49.53821811	     80.18719621	      0.00000000	      0.00000000	     61.73684793	     20.32787055	    -62.66300527	     48.08813626	     67.15812711	      0.00000000	      0.00000000
     12.20000000	      8.16269800	      5.95901687	      6.07308707	      0.04951691	      1.32510468	     -0.00409512	     28.81326915	     -6.43472074	      3.85160024	     66.84330993	      1.16663584	    -28.22942699	    -23.18175776	      0.00000000	     53.80364057	      9.18072001	      2.26213342	     73.85356338	      1.28898785	     -6.79088547	    -19.25980467	      0.00000000	    -64.94343989	     -0.56742518	     -5.35255260	     50.19481203	     12.51948044	    -64.05673182	     49.79798011	     80.27307384	      0.00000000	      0.00000000	     61.63815566	     20.14866239	    -62.85894343	     48.16700103	     67.10653369	      0.00000000	      0.00000000
     12.21700000	      8.35771584	      5.01219654	      5.56431564	      0.04960481	      1.32542075	     -0.00405698	     30.40990351	     -5.41958928	      3.76110596	     70.37901365	      1.22834551	    -27.79993816	    -23.47857826	      0.00000000	     51.35216478	      8.23539243	      2.88063811	     70.02221337	      1.22211817	     -7.14991819	    -19.07139242	      0.00000000	    -65.00128074	     -0.14455199	     -4.35323692	     50.38489349	     12.69432234	    -63.97366486	     49.95491500	     80.32314841	      0.00000000	      0.00000000	     61.42262903	     19.97949442	    -62.99409184	     48.25679135	     67.06188750	      0.00000000	      0.00000000
     12.23300000	      8.52160127	      4.09576387	      4.86945585	      0.04972047	      1.32549887	     -0.00383361	     32.14845740	     -4.39886796	      3.65460994	     73.97020325	      1.29102360	    -26.91703256	    -24.00647892	      0.00000000	     48.75461962	      7.07671508	      3.25732192	     66.05117532	      1.15281048	     -7.91364131	    -18.76120324	      0.00000000	    -65.02834294	      0.11771711	     -3.31401210	     50.56719673	     12.93394368	    -63.93996816	     50.18217200	     80.38527453	      0.00000000	      0.00000000	     61.20003897	     19.77444149	    -63.15177512	     48.29641678	     67.00482856	      0.00000000	      0.00000000
     12.25000000	      8.66902252	      3.42085195	      3.71609717	      0.04984183	      1.32552295	     -0.00279110	     34.02792589	     -3.23563188	      4.11952897	     77.53712124	      1.35327806	    -25.69631773	    -24.45509776	      0.00000000	     46.02103214	      5.61758500	      2.95556048	     62.06091599	      1.08316732	     -8.81824665	    -18.34320474	      0.00000000	    -65.07764423	     -0.19092138	     -2.23518152	     50.69009678	     13.26935794	    -64.07612380	     50.58184644	     80.63784524	      0.00000000	      0.00000000	     61.04221640	     19.52348429	    -63.28780725	     48.13974158	     66.81998687	      0.00000000	      0.00000000
     12.26700000	      8.70560929	      2.58479617	      2.92664863	      0.04990199	      1.32548198	     -0.00228802	     35.91591514	     -2.08955223	      4.19700977	     80.84803454	      1.41106440	    -24.14846667	    -24.51462227	      0.00000000	     43.25899229	      4.31572923	      2.99102637	     58.01740082	      1.01259467	     -9.90427586	    -17.98501463	      0.00000000	    -65.01978273	     -0.09852744	     -1.20120988	     50.83663533	     13.53506164	    -64.13484058	     50.81855311	     80.96484500	      0.00000000	      0.00000000	     60.80448881	     19.27642468	    -63.36968671	     48.05011658	     66.52503106	      0.00000000	      0.00000000
     12.28300000	      8.63265256	      1.69141169	      2.35180067	      0.04993505	      1.32515493	     -0.00191972	     37.92678436	     -0.98659837	      3.95980997	     84.05699529	      1.46707133	    -22.34963770	    -24.82323902	      0.00000000	     40.52844155	      3.05439543	      3.11945518	     53.97761371	      0.94208708	    -11.31554153	    -17.51672074	      0.00000000	    -64.86076198	      0.18336315	     -0.21191057	     50.96249808	     13.82213660	    -64.16448716	     51.03779213	     81.05152736	      0.00000000	      0.00000000	     60.51284238	     19.04132775	    -63.39836658	     48.00357459	     66.41935527	      0.00000000	      0.00000000
